<?xml version="1.0" encoding="UTF-8"?>
<!DOCTYPE svg PUBLIC "-//W3C//DTD SVG 1.1//EN" "http://www.w3.org/Graphics/SVG/1.1/DTD/svg11.dtd">
<svg xmlns="http://www.w3.org/2000/svg" version="1.1" width="3001px" height="3000px" style="shape-rendering:geometricPrecision; text-rendering:geometricPrecision; image-rendering:optimizeQuality; fill-rule:evenodd; clip-rule:evenodd" xmlns:xlink="http://www.w3.org/1999/xlink">
<g><path style="opacity:0.999" fill="#ef4646" d="M 1443.5,-0.5 C 1480.83,-0.5 1518.17,-0.5 1555.5,-0.5C 1926.64,17.6268 2248.64,151.127 2521.5,400C 2769.48,634.045 2922.64,920.212 2981,1258.5C 2992.59,1332.21 2999.09,1406.21 3000.5,1480.5C 3000.5,1493.17 3000.5,1505.83 3000.5,1518.5C 2993.25,1856.79 2886.75,2159.12 2681,2425.5C 2481.16,2676.44 2226.99,2848.27 1918.5,2941C 1799.7,2975.02 1678.7,2994.52 1555.5,2999.5C 1518.17,2999.5 1480.83,2999.5 1443.5,2999.5C 1077.43,2981.61 758.76,2851.11 487.5,2608C 241.392,2380.06 86.5584,2100.23 23,1768.5C 10.3384,1696.87 2.50507,1624.87 -0.5,1552.5C -0.5,1517.17 -0.5,1481.83 -0.5,1446.5C 15.8653,1088.7 140.699,775.372 374,506.5C 589.033,266.154 854.533,108.987 1170.5,35C 1260.62,15.1946 1351.62,3.36124 1443.5,-0.5 Z M 399.5,1229.5 C 1136.52,1229 1873.52,1229.5 2610.5,1231C 2715.21,1246.58 2788.71,1302.74 2831,1399.5C 2855.67,1466.17 2855.67,1532.83 2831,1599.5C 2794.32,1685.18 2730.82,1739.68 2640.5,1763C 2627.3,1765.87 2613.96,1767.87 2600.5,1769C 1863.15,1770 1125.82,1769.66 388.5,1768C 298.63,1755.06 230.463,1709.89 184,1632.5C 143.603,1556.45 138.603,1478.12 169,1397.5C 204.538,1315.96 265.038,1262.8 350.5,1238C 366.789,1234.06 383.122,1231.23 399.5,1229.5 Z"/></g>
</svg>
