<?xml version="1.0" encoding="UTF-8"?>
<!DOCTYPE svg PUBLIC "-//W3C//DTD SVG 1.1//EN" "http://www.w3.org/Graphics/SVG/1.1/DTD/svg11.dtd">
<svg xmlns="http://www.w3.org/2000/svg" version="1.1" width="3001px" height="3000px" style="shape-rendering:geometricPrecision; text-rendering:geometricPrecision; image-rendering:optimizeQuality; fill-rule:evenodd; clip-rule:evenodd" xmlns:xlink="http://www.w3.org/1999/xlink">
<g><path style="opacity:0.999" fill="#f9a619" d="M 1444.5,-0.5 C 1481.5,-0.5 1518.5,-0.5 1555.5,-0.5C 1906.71,16.0452 2215.38,137.545 2481.5,364C 2715.21,568.642 2872.38,821.808 2953,1123.5C 2981.89,1237.19 2997.72,1352.52 3000.5,1469.5C 3000.5,1489.5 3000.5,1509.5 3000.5,1529.5C 2989.36,1890.57 2867.53,2207.9 2635,2481.5C 2424.25,2722.21 2162.75,2881.38 1850.5,2959C 1753.31,2981.94 1654.98,2995.44 1555.5,2999.5C 1518.17,2999.5 1480.83,2999.5 1443.5,2999.5C 1100.57,2983.26 797.568,2866.43 534.5,2649C 295.82,2445.66 134.32,2192.16 50,1888.5C 20.5098,1776.56 3.67642,1662.9 -0.5,1547.5C -0.5,1515.83 -0.5,1484.17 -0.5,1452.5C 2.69494,1359.94 14.1949,1268.27 34,1177.5C 105.888,1416.32 248.388,1599.82 461.5,1728C 646.954,1833.58 845.621,1872.25 1057.5,1844C 1270.08,1811.3 1450.58,1718.14 1599,1564.5C 1765.29,1385.29 1850.12,1172.62 1853.5,926.5C 1849.92,678.825 1764.09,465.158 1596,285.5C 1479.27,164.838 1339.77,81.0047 1177.5,34C 1265.61,14.5285 1354.61,3.02855 1444.5,-0.5 Z"/></g>
</svg>
