<?xml version="1.0" encoding="UTF-8"?>
<!DOCTYPE svg PUBLIC "-//W3C//DTD SVG 1.1//EN" "http://www.w3.org/Graphics/SVG/1.1/DTD/svg11.dtd">
<svg xmlns="http://www.w3.org/2000/svg" version="1.1" width="3001px" height="3000px" style="shape-rendering:geometricPrecision; text-rendering:geometricPrecision; image-rendering:optimizeQuality; fill-rule:evenodd; clip-rule:evenodd" xmlns:xlink="http://www.w3.org/1999/xlink">
<g><path style="opacity:0.999" fill="#737f8d" d="M 1444.5,-0.5 C 1481.5,-0.5 1518.5,-0.5 1555.5,-0.5C 1910.13,16.2557 2221.13,139.756 2488.5,370C 2734.75,588.512 2894.25,859.346 2967,1182.5C 2986.77,1275.97 2997.94,1370.3 3000.5,1465.5C 3000.5,1488.17 3000.5,1510.83 3000.5,1533.5C 2988.53,1892.55 2867.03,2208.22 2636,2480.5C 2424.95,2721.59 2163.12,2881.09 1850.5,2959C 1753.31,2981.94 1654.98,2995.44 1555.5,2999.5C 1518.5,2999.5 1481.5,2999.5 1444.5,2999.5C 1069.29,2981.31 744.619,2845.47 470.5,2592C 246.98,2378.9 101.146,2120.74 33,1817.5C 13.7706,1727 2.60391,1635.67 -0.5,1543.5C -0.5,1514.17 -0.5,1484.83 -0.5,1455.5C 15.2198,1075.58 151.387,746.909 408,469.5C 613.69,253.819 862.19,110.319 1153.5,39C 1249.41,16.7209 1346.41,3.55421 1444.5,-0.5 Z M 1487.5,571.5 C 1738.95,572.103 1956.28,657.27 2139.5,827C 2313.54,996.289 2409.04,1202.79 2426,1446.5C 2436.88,1682.16 2370.21,1892.5 2226,2077.5C 2075.27,2262.67 1881.44,2375.51 1644.5,2416C 1397.65,2451.44 1171.65,2399.11 966.5,2259C 788.938,2131.67 669.105,1962.84 607,1752.5C 553.534,1555.81 561.868,1361.81 632,1170.5C 707.095,977.755 831.595,825.588 1005.5,714C 1152.97,622.347 1313.64,574.847 1487.5,571.5 Z"/></g>
</svg>
