<?xml version="1.0" encoding="UTF-8"?>
<!DOCTYPE svg PUBLIC "-//W3C//DTD SVG 1.1//EN" "http://www.w3.org/Graphics/SVG/1.1/DTD/svg11.dtd">
<svg xmlns="http://www.w3.org/2000/svg" version="1.1" width="3000px" height="3000px" style="shape-rendering:geometricPrecision; text-rendering:geometricPrecision; image-rendering:optimizeQuality; fill-rule:evenodd; clip-rule:evenodd" xmlns:xlink="http://www.w3.org/1999/xlink">
<g><path style="opacity:0.999" fill="#43b580" d="M 1443.5,-0.5 C 1480.83,-0.5 1518.17,-0.5 1555.5,-0.5C 1911.62,16.5284 2223.62,141.028 2491.5,373C 2705.1,563.202 2853.93,795.702 2938,1070.5C 2973.88,1192.43 2994.38,1316.76 2999.5,1443.5C 2999.5,1480.83 2999.5,1518.17 2999.5,1555.5C 2982.47,1911.62 2857.97,2223.62 2626,2491.5C 2435.8,2705.1 2203.3,2853.93 1928.5,2938C 1806.57,2973.88 1682.24,2994.38 1555.5,2999.5C 1518.17,2999.5 1480.83,2999.5 1443.5,2999.5C 1087.38,2982.47 775.38,2857.97 507.5,2626C 293.902,2435.8 145.069,2203.3 61,1928.5C 25.1224,1806.57 4.62241,1682.24 -0.5,1555.5C -0.5,1518.17 -0.5,1480.83 -0.5,1443.5C 16.5284,1087.38 141.028,775.383 373,507.5C 563.202,293.902 795.702,145.069 1070.5,61C 1192.43,25.1224 1316.76,4.62241 1443.5,-0.5 Z"/></g>
</svg>
